# xmcd CD database file
#
# Track frame offsets:
#	150
#	14343
#	25114
#	38649
#	48108
#	61758
#	75990
#	89257
#	100163
#	114828
#	130510
#	144410
#	159800
#	169425
#	180570
#	189628
#	201029
#	210979
#	221818
#	230196
#	237750
#	246667
#	255728
#	265630
#	277270
#	288620
#
# Disc length: 3978 seconds
#
# Revision: 0
# Processed by: cddbd v1.5.2PL0 Copyright (c) Steve Scherf et al.
# Submitted via: CDex 1.70beta2
#
DISCID=670f881a
DTITLE=Rex Allen - Cowboy Under The Western Sky
DYEAR=2009
DGENRE=Country
TTITLE0=The Trail Of The Lonesome Pine
TTITLE1=Nothin`To Do
TTITLE2=The Last Round Up
TTITLE3=The Last Frontier
TTITLE4=Rocky Mountain Lullaby
TTITLE5=Ole Faithful
TTITLE6=Twighlight On The Trail
TTITLE7=The Railroad Corral
TTITLE8=I`m A Young Cowboy
TTITLE9=At The RainBow`s End
TTITLE10=Sky Boss
TTITLE11=Too Lee Roll Um
TTITLE12=Cindy
TTITLE13=Sweet Betsy From Pike
TTITLE14=SleepLiittle Moses
TTITLE15=The Cowboy`s Dream
TTITLE16=Alla El Rancho Grande
TTITLE17=Softly And Tenderly
TTITLE18=Lonesome Valley
TTITLE19=Hoosen Johnny
TTITLE20=Curtains Of Night
TTITLE21=Rarin`To Go
TTITLE22=Old Joe Clark
TTITLE23=On Top Of Old Smokey
TTITLE24=Feeling Bad
TTITLE25=Prayer Of The Frontier Doctor
EXTD=YEAR: 2009
EXTT0=
EXTT1=
EXTT2=
EXTT3=
EXTT4=
EXTT5=
EXTT6=
EXTT7=
EXTT8=
EXTT9=
EXTT10=
EXTT11=
EXTT12=
EXTT13=
EXTT14=
EXTT15=
EXTT16=
EXTT17=
EXTT18=
EXTT19=
EXTT20=
EXTT21=
EXTT22=
EXTT23=
EXTT24=
EXTT25=
PLAYORDER=
